<?xml version="1.0" encoding="UTF-8" standalone="no"?>
<!-- Created with Inkscape (http://www.inkscape.org/) -->

<svg
   xmlns:dc="http://purl.org/dc/elements/1.1/"
   xmlns:cc="http://creativecommons.org/ns#"
   xmlns:rdf="http://www.w3.org/1999/02/22-rdf-syntax-ns#"
   xmlns:svg="http://www.w3.org/2000/svg"
   xmlns="http://www.w3.org/2000/svg"
   xmlns:sodipodi="http://sodipodi.sourceforge.net/DTD/sodipodi-0.dtd"
   xmlns:inkscape="http://www.inkscape.org/namespaces/inkscape"
   width="304mm"
   height="444mm"
   viewBox="0 0 304 444"
   version="1.1"
   id="svg190"
   inkscape:version="0.92.4 (5da689c313, 2019-01-14)"
   sodipodi:docname="88.svg">
  <defs
     id="defs184" />
  <sodipodi:namedview
     id="base"
     pagecolor="#ffffff"
     bordercolor="#666666"
     borderopacity="1.0"
     inkscape:pageopacity="0.0"
     inkscape:pageshadow="2"
     inkscape:zoom="0.35"
     inkscape:cx="928.27487"
     inkscape:cy="650.43457"
     inkscape:document-units="mm"
     inkscape:current-layer="layer1"
     showgrid="false"
     inkscape:window-width="1920"
     inkscape:window-height="1057"
     inkscape:window-x="-8"
     inkscape:window-y="-8"
     inkscape:window-maximized="1" />
  <metadata
     id="metadata187">
    <rdf:RDF>
      <cc:Work
         rdf:about="">
        <dc:format>image/svg+xml</dc:format>
        <dc:type
           rdf:resource="http://purl.org/dc/dcmitype/StillImage" />
        <dc:title></dc:title>
      </cc:Work>
    </rdf:RDF>
  </metadata>
  <g
     inkscape:label="Layer 1"
     inkscape:groupmode="layer"
     id="layer1"
     transform="translate(0,147)">
    <rect
       style="opacity:1;fill:#000000;fill-opacity:1;fill-rule:nonzero;stroke:none;stroke-width:12.86906242;stroke-linecap:square;stroke-linejoin:round;stroke-miterlimit:4;stroke-dasharray:none;stroke-dashoffset:0;stroke-opacity:1"
       id="rect192"
       width="302"
       height="442"
       x="1"
       y="-146"
       rx="26"
       ry="26" />
    <rect
       y="-145"
       x="2"
       height="440"
       width="300"
       id="rect194"
       style="opacity:1;fill:#ffffff;fill-opacity:1;fill-rule:nonzero;stroke:none;stroke-width:12.79732704;stroke-linecap:square;stroke-linejoin:round;stroke-miterlimit:4;stroke-dasharray:none;stroke-dashoffset:0;stroke-opacity:1"
       rx="25"
       ry="25" />
    <rect
       style="opacity:1;fill:#c0121e;fill-opacity:1;fill-rule:nonzero;stroke:none;stroke-width:12.43842888;stroke-linecap:square;stroke-linejoin:round;stroke-miterlimit:4;stroke-dasharray:none;stroke-dashoffset:0;stroke-opacity:1"
       id="rect196"
       width="290"
       height="430"
       x="7"
       y="-140"
       rx="20"
       ry="20" />
    <rect
       y="-130"
       x="17"
       height="410"
       width="270"
       id="rect198"
       style="opacity:1;fill:#ffffff;fill-opacity:1;fill-rule:nonzero;stroke:none;stroke-width:11.71941948;stroke-linecap:square;stroke-linejoin:round;stroke-miterlimit:4;stroke-dasharray:none;stroke-dashoffset:0;stroke-opacity:1"
       rx="10"
       ry="10" />
    <circle
       style="opacity:1;fill:#c0121e;fill-opacity:1;fill-rule:nonzero;stroke:none;stroke-width:11.23973942;stroke-linecap:square;stroke-linejoin:round;stroke-miterlimit:4;stroke-dasharray:none;stroke-dashoffset:0;stroke-opacity:1"
       id="path10"
       cx="152"
       cy="-45"
       r="50" />
    <circle
       r="37.5"
       cy="-45"
       cx="152"
       id="circle817"
       style="opacity:1;fill:#ffffff;fill-opacity:1;fill-rule:nonzero;stroke:none;stroke-width:8.42980385;stroke-linecap:square;stroke-linejoin:round;stroke-miterlimit:4;stroke-dasharray:none;stroke-dashoffset:0;stroke-opacity:1" />
    <path
       inkscape:connector-curvature="0"
       id="path16"
       style="fill:#000000;fill-opacity:1;fill-rule:nonzero;stroke:none;stroke-width:0.03527778"
       d="m 136.40001,-75.000115 v 60.0001 h 9.29972 v -26.21915 h 12.42095 c 5.3594,0 9.80017,-1.7399 13.31949,-5.2197 3.39866,-3.40078 5.0994,-7.60095 5.0994,-12.60087 0,-4.47921 -1.70074,-8.25958 -5.0994,-11.33969 -3.39903,-3.0794 -7.41999,-4.61999 -12.06007,-4.62069 z m 9.29972,8.88084 h 13.85993 c 1.92052,0 3.62056,0.74012 5.10011,2.22038 1.52082,1.44004 2.28,3.03883 2.28,4.79955 0,2.32021 -0.64065,4.3007 -1.91946,5.94148 -1.27988,1.6383 -2.9203,2.45921 -4.92055,2.45921 h -14.40003 v -15.42062 0" />
    <rect
       y="30.660433"
       x="135.15007"
       height="90"
       width="8.3000002"
       id="rect902"
       style="opacity:1;fill:#c0121e;fill-opacity:1;fill-rule:nonzero;stroke:none;stroke-width:9.55656815;stroke-linecap:square;stroke-linejoin:round;stroke-miterlimit:4;stroke-dasharray:none;stroke-dashoffset:0;stroke-opacity:1"
       transform="rotate(-45)" />
    <path
       style="fill:#c0121e;fill-opacity:1;fill-rule:nonzero;stroke:none;stroke-width:0.08819417"
       d="m 102.99996,25.000353 c -5.16696,0.06181 -8.54934,1.499791 -12.1884,5.168688 -2.5617,2.582307 -3.69261,4.598247 -4.56148,8.131279 l -9.05009,72.84982 2.15025,29.77028 L 77,144.00033 v 18.49964 H 89.50001 V 175 h 25.00002 v -12.50003 h 75.00008 V 175 h 25.00002 v -12.50003 h 12.50001 v -18.49964 l -2.35024,-3.07991 2.15026,-29.77028 -9.0501,-72.84982 c -0.86887,-3.533032 -1.99978,-5.548972 -4.56148,-8.131279 -3.63906,-3.668897 -7.02144,-5.106881 -12.1884,-5.168688 z"
       id="path14-8"
       inkscape:connector-curvature="0"
       sodipodi:nodetypes="ccccccccccccccccccccccc" />
    <path
       inkscape:connector-curvature="0"
       id="path18"
       style="fill:#ffffff;fill-opacity:1;fill-rule:nonzero;stroke:none;stroke-width:0.08819417"
       d="M 147,100.00036 V 51.20023 l -56.5,4 -5.5,44.80013"
       sodipodi:nodetypes="cccc" />
    <path
       sodipodi:nodetypes="cccc"
       d="M 157.00014,100.00036 V 51.20023 l 56.50001,4 5.5,44.80013"
       style="fill:#ffffff;fill-opacity:1;fill-rule:nonzero;stroke:none;stroke-width:0.08819417"
       id="path947"
       inkscape:connector-curvature="0" />
    <rect
       style="opacity:1;fill:#ffffff;fill-opacity:1;fill-rule:nonzero;stroke:none;stroke-width:13.84771156;stroke-linecap:square;stroke-linejoin:round;stroke-miterlimit:4;stroke-dasharray:none;stroke-dashoffset:0;stroke-opacity:1"
       id="rect958"
       width="122"
       height="3.7"
       x="90.999992"
       y="143.00023" />
    <circle
       style="opacity:1;fill:#ffffff;fill-opacity:1;fill-rule:nonzero;stroke:none;stroke-width:11.76188946;stroke-linecap:square;stroke-linejoin:round;stroke-miterlimit:4;stroke-dasharray:none;stroke-dashoffset:0;stroke-opacity:1"
       id="path969"
       cx="108.7"
       cy="127.10023"
       r="6.6999998" />
    <circle
       r="6.6999998"
       cy="127.10023"
       cx="97.700005"
       id="circle971"
       style="opacity:1;fill:#ffffff;fill-opacity:1;fill-rule:nonzero;stroke:none;stroke-width:11.76188946;stroke-linecap:square;stroke-linejoin:round;stroke-miterlimit:4;stroke-dasharray:none;stroke-dashoffset:0;stroke-opacity:1" />
    <circle
       r="6.6999998"
       cy="127.10023"
       cx="195.30016"
       id="circle987"
       style="opacity:1;fill:#ffffff;fill-opacity:1;fill-rule:nonzero;stroke:none;stroke-width:11.76188946;stroke-linecap:square;stroke-linejoin:round;stroke-miterlimit:4;stroke-dasharray:none;stroke-dashoffset:0;stroke-opacity:1" />
    <circle
       style="opacity:1;fill:#ffffff;fill-opacity:1;fill-rule:nonzero;stroke:none;stroke-width:11.76188946;stroke-linecap:square;stroke-linejoin:round;stroke-miterlimit:4;stroke-dasharray:none;stroke-dashoffset:0;stroke-opacity:1"
       id="circle989"
       cx="206.30014"
       cy="127.10023"
       r="6.6999998" />
    <rect
       style="opacity:1;fill:#ffffff;fill-opacity:1;fill-rule:nonzero;stroke:none;stroke-width:9.96512985;stroke-linecap:square;stroke-linejoin:round;stroke-miterlimit:4;stroke-dasharray:none;stroke-dashoffset:0;stroke-opacity:1"
       id="rect1012"
       width="72"
       height="15.8"
       x="115.99999"
       y="29.400223" />
    <path
       inkscape:connector-curvature="0"
       id="path36-0"
       style="fill:#c0121e;fill-opacity:1;fill-rule:nonzero;stroke:none;stroke-width:0.35283083"
       d="m 75.09408,222.45222 c 0,2.19807 -0.84515,3.84926 -2.52636,4.84422 -1.30944,0.81849 -2.43285,0.98401 -6.40658,0.98401 H 61.06572 V 216.1784 h 4.44231 c 3.64836,0 5.42349,0.22331 6.5456,0.76629 1.91555,0.99111 3.04045,3.03071 3.04045,5.5075 z m -1.68591,-16.22968 c 0,1.76408 -0.79214,3.18914 -2.194,4.12762 -1.0793,0.66008 -2.52666,0.93181 -5.75595,0.93181 h -4.3925 v -10.00738 h 5.18924 c 2.19821,0 3.74188,0.16542 4.58275,0.55147 1.58778,0.76488 2.57046,2.46693 2.57046,4.39649 z M 80.61,222.5609 c 0,-4.79059 -1.72993,-7.70558 -5.60983,-9.57165 2.52496,-1.48817 3.78639,-3.85208 3.78639,-7.37321 0,-2.97003 -1.02959,-5.49905 -2.94554,-7.42157 -1.96426,-1.92956 -4.30289,-2.69448 -8.1831,-2.69448 H 55.5 v 38.5 h 12.25034 c 3.50794,0 5.84696,-0.44105 7.6676,-1.48149 3.2761,-1.93096 5.19206,-5.55407 5.19206,-9.9576 v 0" />
    <path
       inkscape:connector-curvature="0"
       id="path38-3"
       style="fill:#c0121e;fill-opacity:1;fill-rule:nonzero;stroke:none;stroke-width:0.35274342"
       d="m 106.0406,233.99717 v -27.49718 h -5.00129 v 14.84761 c 0,2.26119 -0.23397,3.7424 -0.74691,4.84338 -0.88887,1.70311 -2.71141,2.80405 -4.44047,2.80405 -1.3573,0 -2.71182,-0.77285 -3.32063,-1.92886 -0.46893,-0.87519 -0.6999,-2.41709 -0.6999,-4.61479 V 206.49999 H 86.83 v 15.95139 c 0,5.00882 0.32796,6.87456 1.68076,8.85071 1.35871,2.14549 3.69419,3.3579 6.40421,3.3579 2.52584,0 4.43937,-0.99474 6.17273,-3.24501 v 2.58219 h 4.9533 v 0" />
    <path
       inkscape:connector-curvature="0"
       id="path40-9"
       style="fill:#c0121e;fill-opacity:1;fill-rule:nonzero;stroke:none;stroke-width:0.35279751"
       d="m 131.24,225.58092 c 0,-4.40303 -2.52478,-6.98393 -7.47935,-8.02569 -2.71251,-0.55 -2.99474,-0.61351 -3.50739,-0.8283 -1.16883,-0.44102 -1.77921,-1.26649 -1.77921,-2.31529 0,-1.80903 1.68539,-3.18169 3.92755,-3.18169 1.59328,0 2.43407,0 4.11417,2.25459 l 4.16187,-2.25459 c -2.05623,-4.18251 -5.09508,-5.28496 -8.32014,-5.28496 -5.28101,0 -8.97892,3.57749 -8.97892,8.57706 0,1.9858 0.65707,3.96451 1.8262,5.39786 1.30515,1.53353 2.6158,2.19638 5.84336,2.80421 2.33637,0.441 2.80492,0.55 3.36559,0.82551 1.02842,0.49739 1.59188,1.42487 1.59188,2.52871 0,1.81326 -1.7323,3.07974 -4.25709,3.07974 -2.33596,0 -3.5532,-0.60639 -5.61083,-3.52072 l -3.45769,3.24519 c 1.91411,4.23052 5.70154,5.66244 9.20894,5.66244 5.47152,0 9.35106,-3.68616 9.35106,-8.96406 v 0" />
    <path
       inkscape:connector-curvature="0"
       id="path42-7"
       style="fill:#c0121e;fill-opacity:1;fill-rule:nonzero;stroke:none;stroke-width:0.35294858"
       d="m 173.35999,222.78518 c 0,-2.80439 -0.79372,-5.28491 -2.33825,-7.25986 -1.64258,-2.03246 -3.41761,-3.02768 -7.29747,-3.78973 -3.92968,-0.78003 -4.63443,-0.94554 -6.13409,-1.71035 -1.86891,-0.82525 -2.61791,-2.31508 -2.61791,-4.12739 0,-3.13529 2.76302,-5.33321 6.41375,-5.33321 2.89686,0 4.06634,1.1508 6.50096,4.18241 l 4.90599,-2.37011 c -2.19311,-5.93969 -6.58893,-7.69695 -11.83033,-7.69695 -6.92392,0 -11.69648,4.56872 -11.69648,11.38332 0,3.41084 1.16987,6.32565 3.27329,8.25475 1.637,1.37273 3.18182,2.14181 7.25514,2.96455 3.31984,0.61314 4.0674,0.93415 5.23717,1.59711 1.68256,0.93845 2.62069,2.53024 2.62069,4.56836 0,3.19032 -2.33532,5.5537 -6.07855,5.5537 -3.41801,0 -6.08425,-1.65494 -9.17397,-5.49973 L 148,227.30133 c 3.60409,4.9956 8.28267,7.52866 13.85246,7.52866 7.10761,0 11.50752,-4.78742 11.50752,-12.04481 v 0" />
    <path
       inkscape:connector-curvature="0"
       id="path44-2"
       style="fill:#c0121e;fill-opacity:1;fill-rule:nonzero;stroke:none;stroke-width:0.352754"
       d="m 194.05979,233.55668 -0.61288,-5.16776 c -1.07469,0.22201 -1.96491,0.33051 -2.79696,0.33051 -2.43333,0 -2.99663,-0.77153 -2.99663,-4.18382 v -12.97239 h 6.07434 v -5.0658 h -6.07434 v -10.99743 h -4.95315 v 10.99743 h -4.30018 v 5.0658 h 4.30018 v 14.95827 c 0,5.55378 1.77736,7.8085 6.35698,7.8085 1.5928,0 3.40996,-0.27591 5.00284,-0.77335 v 0" />
    <path
       inkscape:connector-curvature="0"
       id="path46-9"
       style="fill:#c0121e;fill-opacity:1;fill-rule:nonzero;stroke:none;stroke-width:0.35271651"
       d="m 214.66792,220.25388 c 0,5.27728 -2.42485,8.79794 -5.93235,8.79794 -3.59437,0 -5.97794,-3.52066 -5.97794,-8.79794 0,-5.17392 2.42485,-8.80747 6.02763,-8.80747 3.54599,0 5.88266,3.52736 5.88266,8.80747 z m 5.33207,0.1019 c 0,-8.57853 -4.62914,-14.51579 -11.44888,-14.51579 -6.49601,0 -10.85112,5.82827 -10.85112,14.51579 0,8.52914 4.58925,14.41421 11.22173,14.41421 6.544,0 11.07827,-5.94009 11.07827,-14.41421 v 0" />
    <path
       inkscape:connector-curvature="0"
       id="path1322"
       style="fill:#c0121e;fill-opacity:1;fill-rule:nonzero;stroke:none;stroke-width:0.35335037"
       d="m 243.20619,220.46599 c 0,5.16865 -2.29165,8.46857 -5.80469,8.46857 -1.59444,0 -2.85743,-0.661 -3.89291,-1.86863 -1.11812,-1.32212 -1.44918,-2.91484 -1.44918,-6.92815 0,-2.97141 0.18631,-4.56553 0.80036,-5.77738 0.84245,-1.65071 2.62282,-2.74918 4.54173,-2.74918 3.60269,0 5.80469,3.41019 5.80469,8.85477 z m 5.2938,-0.16625 c 0,-8.4121 -4.21736,-14.29975 -10.30473,-14.29975 -2.57443,0 -4.16897,0.77317 -6.22561,3.13567 v -2.64132 h -4.96966 V 245 h 4.96966 v -13.36944 c 1.96688,2.0358 3.83741,2.86255 6.32207,2.86255 5.94283,0 10.20827,-5.94314 10.20827,-14.19337 v 0" />
  </g>
</svg>
